<?xml version="1.0" standalone="no"?>
<!DOCTYPE svg PUBLIC "-//W3C//DTD SVG 20010904//EN"
 "http://www.w3.org/TR/2001/REC-SVG-20010904/DTD/svg10.dtd">
<svg version="1.0" xmlns="http://www.w3.org/2000/svg"
 width="1024.000000pt" height="1024.000000pt" viewBox="0 0 1024.000000 1024.000000"
 preserveAspectRatio="xMidYMid meet">
<metadata>
Created by potrace 1.16, written by Peter Selinger 2001-2019
</metadata>
<g transform="translate(0.000000,1024.000000) scale(0.100000,-0.100000)"
fill="#000000" stroke="none">
<path d="M1798 6910 c-120 -21 -201 -64 -280 -145 -120 -125 -149 -309 -71
-463 61 -120 186 -203 492 -326 268 -107 364 -178 397 -294 52 -178 -82 -343
-307 -382 -117 -20 -272 15 -398 89 -113 67 -232 190 -286 297 -27 53 -42 66
-49 42 -45 -175 -58 -248 -47 -262 20 -24 168 -116 236 -147 118 -53 215 -73
370 -73 157 0 225 13 334 67 227 111 327 373 224 586 -61 126 -181 206 -490
327 -203 79 -290 124 -344 176 -55 53 -79 109 -79 183 0 110 61 199 171 250
182 83 375 48 518 -95 60 -61 144 -186 166 -249 13 -40 35 -53 35 -22 0 12 14
68 30 124 31 102 31 102 3 125 -66 54 -217 135 -305 164 -101 32 -233 44 -320
28z"/>
<path d="M7965 6860 c-261 -68 -468 -235 -575 -463 -54 -115 -70 -184 -77
-317 -6 -134 9 -226 58 -348 76 -191 219 -344 414 -440 143 -72 210 -87 375
-87 132 1 153 3 230 29 253 84 419 225 534 455 235 467 -49 1045 -576 1171
-109 26 -283 26 -383 0z m328 -25 c328 -69 581 -457 553 -850 -25 -365 -260
-678 -553 -740 -202 -43 -398 10 -549 148 -116 106 -190 227 -241 394 -24 80
-27 103 -27 253 -1 197 9 241 91 410 50 103 64 123 147 205 68 68 110 100 166
128 127 64 273 82 413 52z"/>
<path d="M2955 6862 c-370 -2 -370 -2 -393 -84 -12 -44 -21 -83 -18 -85 2 -2
33 12 69 32 110 60 227 95 352 104 60 5 113 7 118 4 9 -6 8 -1455 -2 -1516 -5
-27 -18 -58 -31 -72 -13 -14 -20 -25 -17 -26 4 0 70 0 147 0 77 0 143 0 147 0
3 1 -4 12 -17 25 -12 14 -26 44 -31 68 -10 54 -12 1516 -1 1520 4 2 77 1 162
-2 169 -5 191 -12 227 -67 16 -25 18 -73 23 -558 5 -530 5 -530 32 -610 63
-187 197 -308 405 -367 106 -30 301 -32 383 -4 91 31 145 63 209 122 72 66
120 143 152 239 23 69 23 81 29 605 5 493 7 538 24 578 10 23 30 51 44 62 14
11 23 22 21 24 -4 4 -237 9 -276 7 -25 -2 -13 -19 17 -26 41 -9 97 -78 118
-145 15 -49 17 -110 17 -530 0 -430 -2 -481 -18 -540 -55 -192 -196 -330 -378
-370 -32 -7 -96 -11 -150 -8 -119 5 -203 41 -283 121 -61 61 -93 119 -128 227
-23 75 -23 76 -23 625 0 548 0 550 22 594 12 25 21 46 20 47 -5 5 -615 9 -972
6z"/>
<path d="M5192 6829 c23 -31 23 -31 23 -794 0 -763 0 -763 -24 -789 -14 -14
-23 -26 -20 -26 213 -9 637 -9 707 -1 405 50 726 307 797 641 21 97 21 265 1
353 -74 317 -338 550 -711 628 -78 16 -136 19 -443 19 -353 0 -353 0 -330 -31z
m694 -10 c329 -46 574 -316 613 -677 39 -365 -122 -689 -414 -829 -108 -51
-185 -63 -426 -65 -210 -2 -211 -2 -230 21 -18 22 -19 53 -19 766 0 736 0 743
21 769 20 26 20 26 199 26 98 0 213 -5 256 -11z"/>
<path d="M6860 6853 c0 -3 7 -14 15 -23 32 -36 36 -123 33 -834 -3 -704 -3
-704 -25 -735 -13 -16 -23 -34 -23 -38 0 -4 65 -8 145 -8 80 0 145 2 145 4 0
3 -10 15 -22 29 -23 24 -23 24 -23 787 0 763 0 763 23 794 23 31 23 31 -123
31 -80 0 -145 -3 -145 -7z"/>
<path d="M1297 4931 c-111 -98 -37 -281 102 -250 43 10 70 34 54 50 -8 8 -17
7 -34 -5 -80 -55 -175 42 -135 138 10 24 27 42 51 53 35 17 38 17 67 0 52 -30
78 -18 38 18 -10 9 -39 20 -63 22 -38 5 -48 1 -80 -26z"/>
<path d="M1983 4940 c-48 -29 -66 -63 -64 -122 1 -86 47 -137 122 -138 55 0
94 26 115 76 53 126 -64 251 -173 184z m118 -36 c25 -23 42 -78 34 -113 -26
-118 -186 -100 -185 21 1 50 18 85 51 104 28 16 75 10 100 -12z"/>
<path d="M2638 4953 c-2 -5 -4 -66 -4 -138 1 -119 3 -130 20 -133 18 -4 18 2
11 102 -4 58 -5 106 -2 106 3 0 22 -30 43 -67 52 -93 84 -138 97 -138 9 0 13
41 15 138 2 128 1 138 -15 135 -16 -3 -18 -14 -15 -106 2 -56 2 -102 -1 -102
-2 0 -32 47 -67 105 -57 98 -73 116 -82 98z"/>
<path d="M3342 4935 c-61 -52 -77 -115 -46 -181 25 -52 59 -74 114 -74 56 0
104 30 83 51 -9 9 -17 8 -37 -5 -39 -25 -78 -20 -112 15 -78 82 7 225 103 174
22 -12 37 -15 44 -8 16 16 -26 45 -74 50 -36 4 -48 1 -75 -22z"/>
<path d="M3967 4953 c-4 -3 -7 -66 -7 -140 0 -133 0 -133 85 -133 69 0 85 3
85 15 0 12 -14 15 -70 15 -70 0 -70 0 -70 50 0 50 0 50 61 50 52 0 60 2 57 18
-3 14 -13 16 -61 14 -58 -4 -58 -4 -55 40 3 43 3 43 58 44 77 2 80 2 80 19 0
12 -15 15 -78 15 -43 0 -82 -3 -85 -7z"/>
<path d="M4600 4821 c0 -119 2 -141 15 -141 12 0 15 14 15 65 0 65 0 65 39 65
53 0 91 31 91 74 0 48 -29 69 -100 74 -60 4 -60 4 -60 -137z m104 99 c19 -7
26 -17 26 -35 0 -27 -30 -45 -76 -45 -22 0 -24 4 -24 45 0 41 2 45 24 45 14 0
36 -4 50 -10z"/>
<path d="M5225 4950 c-12 -19 7 -30 47 -28 41 3 41 3 39 -118 -2 -83 1 -124 9
-129 20 -13 24 4 24 128 1 122 1 122 41 122 30 0 40 4 43 18 3 15 -7 17 -97
17 -56 0 -103 -4 -106 -10z"/>
<path d="M5740 4955 c0 -2 18 -28 39 -56 85 -113 144 -237 276 -579 107 -278
251 -651 321 -832 66 -168 66 -168 144 -168 43 0 85 -3 94 -6 24 -9 20 12 -20
106 -39 94 -39 100 1 205 26 68 82 223 275 770 103 293 163 422 233 500 26 29
47 56 47 59 0 3 -66 6 -147 6 -146 0 -146 0 -126 -22 43 -48 57 -90 57 -173 0
-92 5 -76 -186 -615 -72 -201 -146 -413 -166 -472 -19 -59 -39 -105 -43 -102
-4 2 -22 41 -39 87 -51 133 -175 453 -286 740 -123 316 -148 400 -141 471 2
28 10 52 16 54 6 2 11 10 11 18 0 12 -31 14 -180 14 -99 0 -180 -2 -180 -5z"/>
<path d="M7260 4955 c0 -3 9 -14 19 -24 11 -11 22 -39 26 -63 3 -24 5 -367 3
-763 -3 -694 -4 -722 -22 -750 -11 -17 -20 -31 -20 -33 -1 -6 284 -5 290 1 3
3 -3 10 -14 16 -11 6 -24 29 -31 55 -14 55 -15 1421 -2 1479 5 22 19 50 32 63
22 24 22 24 -129 24 -84 0 -152 -2 -152 -5z"/>
<path d="M7740 4955 c0 -3 10 -20 23 -36 22 -31 22 -31 25 -737 2 -389 0 -731
-3 -760 -4 -33 -14 -61 -26 -73 -10 -10 -19 -22 -19 -26 0 -5 65 -8 145 -8 80
0 145 1 145 3 0 2 -10 16 -22 33 -22 30 -23 38 -26 316 -2 247 -1 288 13 303
12 14 41 18 145 23 215 11 388 53 514 123 61 34 142 123 174 191 24 52 27 69
27 169 0 107 -1 112 -38 186 -44 91 -108 151 -206 198 -80 39 -218 76 -331 90
-86 10 -540 14 -540 5z m603 -54 c98 -26 167 -62 217 -117 74 -80 110 -182
110 -312 0 -144 -55 -265 -153 -338 -98 -73 -193 -98 -399 -107 -151 -6 -138
-48 -138 448 0 506 -16 461 164 452 68 -4 155 -15 199 -26z"/>
</g>
</svg>
